<svg xmlns="http://www.w3.org/2000/svg" version="1.1" xmlns:xlink="http://www.w3.org/1999/xlink" xmlns:svgjs="http://svgjs.dev/svgjs" width="1000" height="335" viewBox="0 0 1000 335"><g transform="matrix(1,0,0,1,-0.6060606060606233,0.45087173811310777)"><svg viewBox="0 0 396 133" data-background-color="#0074d9" preserveAspectRatio="xMidYMid meet" height="335" width="1000" xmlns="http://www.w3.org/2000/svg" xmlns:xlink="http://www.w3.org/1999/xlink"><g id="tight-bounds" transform="matrix(1,0,0,1,0.2400000000000091,-0.17900280945983127)"><svg viewBox="0 0 395.52 133.3580056189197" height="133.3580056189197" width="395.52"><g><svg viewBox="0 0 653.6385791438829 220.38819101489844" height="133.3580056189197" width="395.52"><g transform="matrix(1,0,0,1,0,30.458859973839083)"><svg viewBox="0 0 395.5199999999999 159.47047106722027" height="159.47047106722027" width="395.5199999999999"><g><svg viewBox="0 0 395.5199999999999 159.47047106722027" height="159.47047106722027" width="395.5199999999999"><g><svg viewBox="0 0 395.5199999999999 90.0614800759013" height="90.0614800759013" width="395.5199999999999"><g transform="matrix(1,0,0,1,0,0)"><svg width="395.5199999999999" viewBox="5 -35.15 162.09 36" height="90.0614800759013" data-palette-color="#ffffff"><g class="undefined-text-0" data-fill-palette-color="primary" id="text-0"><path d="M5 0L5-34.2 8-34.2 8-2.8 25.35-2.8 25.35 0 5 0ZM47.1 0.85Q42.25 0.85 38.32-1.43 34.4-3.7 32.12-7.68 29.85-11.65 29.85-16.5L29.85-16.5 29.85-17.45Q29.85-22.35 32.1-26.38 34.35-30.4 38.25-32.7 42.15-35 46.9-35L46.9-35Q51.7-35 55.6-32.7 59.5-30.4 61.75-26.38 64-22.35 64-17.45L64-17.45 64-16.5Q64-11.55 61.8-7.6 59.6-3.65 55.75-1.4 51.9 0.85 47.1 0.85L47.1 0.85ZM46.95-1.95Q50.9-1.95 54.1-3.85 57.3-5.75 59.15-9.08 61-12.4 61-16.5L61-16.5 61-17.45Q61-21.6 59.12-24.98 57.25-28.35 54.02-30.28 50.8-32.2 46.85-32.2L46.85-32.2Q42.95-32.2 39.75-30.25 36.55-28.3 34.7-24.93 32.85-21.55 32.85-17.45L32.85-17.45 32.85-16.5Q32.85-12.4 34.7-9.08 36.55-5.75 39.77-3.85 43-1.95 46.95-1.95L46.95-1.95ZM71.9-34.65L72.8-34.65 87.3-16.15 102.1-34.65 103-34.65 103 0 100 0 100-23.5Q100-25 100.4-28.4L100.4-28.4Q97.75-24.7 93.85-19.8 89.95-14.9 87.35-12.15L87.35-12.15Q81.1-19.2 76.9-24.3L76.9-24.3Q76.15-25.25 75.6-26.05 75.05-26.85 74.5-27.85L74.5-27.85Q74.5-28 74.7-26.5L74.7-26.5Q74.9-25 74.9-24.2L74.9-24.2 74.9 0 71.9 0 71.9-34.65ZM109.64 0L124.24-35.15 125.19-35.15 139.89 0 136.69 0 131.84-11.35 117.59-11.35 112.84 0 109.64 0ZM130.64-14.15L125.94-25.85Q125.14-27.85 124.69-29.75L124.69-29.75Q124.09-27.4 123.49-25.85L123.49-25.85 118.79-14.15 130.64-14.15ZM157.44-34.2Q161.84-34.2 164.47-31.25 167.09-28.3 167.09-23.5L167.09-23.5Q167.09-18.35 163.82-15.53 160.54-12.7 153.99-12.7L153.99-12.7Q151.44-12.7 149.54-12.8L149.54-12.8 149.54 0.05 146.54 0.05 146.54-34.2 157.44-34.2ZM154.59-15.5Q159.19-15.5 161.64-17.63 164.09-19.75 164.09-23.65L164.09-23.65Q164.09-27.3 162.09-29.35 160.09-31.4 156.74-31.4L156.74-31.4 149.54-31.4 149.54-15.65 151.34-15.6Q153.74-15.5 154.59-15.5L154.59-15.5Z" fill="#ffffff" data-fill-palette-color="primary"></path></g></svg></g></svg></g><g transform="matrix(1,0,0,1,163.310208,111.32283404629977)"><svg viewBox="0 0 232.20979199999994 48.147637020920484" height="48.147637020920484" width="232.20979199999994"><g transform="matrix(1,0,0,1,0,0)"><svg width="232.20979199999994" viewBox="1 -33.1 215.08 44.6" height="48.147637020920484" data-palette-color="#ffffff"><path d="M7.6 0L1 0 1-0.5 2-0.85Q3.7-1.4 3.7-3.7L3.7-3.7 3.7-29.3Q3.7-30.3 3.48-30.9 3.25-31.5 2.3-31.9L2.3-31.9 1-32.5 1-33 10.65-33 19.9-8.8 28.6-33 38.45-33 38.45-32.5 37.65-32.2Q36.7-31.85 36.35-31.23 36-30.6 36-29.6L36-29.6 36-3.45Q36-2.45 36.25-1.9 36.5-1.35 37.45-0.95L37.45-0.95 38.45-0.5 38.45 0 26 0 26-0.5 27.05-0.95Q28-1.35 28.25-1.9 28.5-2.45 28.5-3.45L28.5-3.45 28.5-14.7 28.6-29 18.15 0 15.65 0 4.75-28.65 4.9-16.2 4.9-3.6Q4.9-2.5 5.23-1.83 5.55-1.15 6.5-0.85L6.5-0.85 7.6-0.5 7.6 0ZM47.85 0.75L47.85 0.75Q44.95 0.75 42.97-0.9 41-2.55 41-5.65L41-5.65Q41-8 43.4-9.98 45.8-11.95 50.95-12.95L50.95-12.95Q51.75-13.1 52.75-13.28 53.75-13.45 54.85-13.65L54.85-13.65 54.85-17.6Q54.85-21 54.02-22.38 53.2-23.75 51.45-23.75L51.45-23.75Q50.25-23.75 49.55-22.98 48.85-22.2 48.65-20.3L48.65-20.3 48.55-19.75Q48.45-17.6 47.5-16.6 46.55-15.6 45.15-15.6L45.15-15.6Q43.85-15.6 43-16.4 42.15-17.2 42.15-18.55L42.15-18.55Q42.15-20.6 43.57-22 45-23.4 47.35-24.1 49.7-24.8 52.45-24.8L52.45-24.8Q56.9-24.8 59.32-22.63 61.75-20.45 61.75-15.55L61.75-15.55 61.75-4.5Q61.75-2.25 63.85-2.25L63.85-2.25 64.95-2.25 65.4-1.85Q64.45-0.65 63.32 0 62.2 0.65 60.15 0.65L60.15 0.65Q57.95 0.65 56.67-0.38 55.4-1.4 55-3.1L55-3.1Q53.5-1.5 51.92-0.38 50.35 0.75 47.85 0.75ZM50.9-2.3L50.9-2.3Q51.9-2.3 52.77-2.78 53.65-3.25 54.85-4.25L54.85-4.25 54.85-12.65Q54.35-12.55 53.85-12.45 53.35-12.35 52.7-12.25L52.7-12.25Q50.4-11.65 49.02-10.23 47.65-8.8 47.65-6.4L47.65-6.4Q47.65-4.35 48.6-3.33 49.55-2.3 50.9-2.3ZM78.6 11.5L66.45 11.5 66.45 11 67.05 10.8Q68.9 10.3 68.9 8.4L68.9 8.4 68.9-18.8Q68.9-19.9 68.52-20.45 68.15-21 67.15-21.2L67.15-21.2 66.45-21.35 66.45-21.85 74.95-24.75 75.45-24.25 75.9-22.7Q77.55-23.7 79.57-24.25 81.6-24.8 83.75-24.8L83.75-24.8Q88.05-24.8 90.57-21.53 93.1-18.25 93.1-12.15L93.1-12.15Q93.1-6.15 90.32-2.7 87.55 0.75 82.5 0.75L82.5 0.75Q78.55 0.75 75.85-0.4L75.85-0.4 75.85 8.25Q75.85 10.25 77.65 10.75L77.65 10.75 78.6 11 78.6 11.5ZM80.1-0.7L80.1-0.7Q82.6-0.7 84.07-3.3 85.55-5.9 85.55-11.95L85.55-11.95Q85.55-18 84.15-20.43 82.75-22.85 80.1-22.85L80.1-22.85Q78.25-22.85 76-21.65L76-21.65 76-1.5Q77.9-0.7 80.1-0.7ZM103.99 0.75L103.99 0.75Q101.54 0.75 99.59 0.18 97.64-0.4 95.99-1.25L95.99-1.25 96.04-7.2 96.54-7.2 98.24-4.2Q99.34-2.2 100.67-1.23 101.99-0.25 104.04-0.25L104.04-0.25Q106.44-0.25 107.92-1.33 109.39-2.4 109.39-4.2L109.39-4.2Q109.39-5.85 108.34-6.9 107.29-7.95 104.44-8.8L104.44-8.8 102.34-9.45Q99.29-10.35 97.54-12.25 95.79-14.15 95.79-16.9L95.79-16.9Q95.79-20.2 98.39-22.5 100.99-24.8 105.84-24.8L105.84-24.8Q107.79-24.8 109.52-24.38 111.24-23.95 112.84-23.1L112.84-23.1 112.54-17.7 112.04-17.7 110.29-20.8Q109.34-22.45 108.42-23.13 107.49-23.8 105.64-23.8L105.64-23.8Q103.94-23.8 102.44-22.85 100.94-21.9 100.94-20.15L100.94-20.15Q100.94-18.45 102.22-17.45 103.49-16.45 105.99-15.6L105.99-15.6 108.24-14.95Q111.84-13.85 113.39-11.93 114.94-10 114.94-7.3L114.94-7.3Q114.94-3.65 112.07-1.45 109.19 0.75 103.99 0.75ZM134.34 0L127.44 0 127.44-0.5 128.69-0.95Q129.69-1.35 130.24-1.93 130.79-2.5 131.14-3.55L131.14-3.55 141.44-33.1 145.69-33.1 155.84-3.35Q156.24-2.25 156.74-1.68 157.24-1.1 158.29-0.7L158.29-0.7 158.89-0.5 158.89 0 146.19 0 146.19-0.5 146.94-0.75Q147.99-1.15 148.21-1.88 148.44-2.6 148.14-3.6L148.14-3.6 145.79-10.8 134.69-10.8 132.29-3.75Q131.94-2.65 132.06-2 132.19-1.35 133.24-0.95L133.24-0.95 134.34-0.5 134.34 0ZM140.44-27.35L135.04-11.8 145.49-11.8 140.44-27.35ZM172.69 11.5L160.54 11.5 160.54 11 161.14 10.8Q162.99 10.3 162.99 8.4L162.99 8.4 162.99-18.8Q162.99-19.9 162.61-20.45 162.24-21 161.24-21.2L161.24-21.2 160.54-21.35 160.54-21.85 169.04-24.75 169.54-24.25 169.99-22.7Q171.64-23.7 173.66-24.25 175.69-24.8 177.84-24.8L177.84-24.8Q182.14-24.8 184.66-21.53 187.19-18.25 187.19-12.15L187.19-12.15Q187.19-6.15 184.41-2.7 181.64 0.75 176.59 0.75L176.59 0.75Q172.64 0.75 169.94-0.4L169.94-0.4 169.94 8.25Q169.94 10.25 171.74 10.75L171.74 10.75 172.69 11 172.69 11.5ZM174.19-0.7L174.19-0.7Q176.69-0.7 178.16-3.3 179.64-5.9 179.64-11.95L179.64-11.95Q179.64-18 178.24-20.43 176.84-22.85 174.19-22.85L174.19-22.85Q172.34-22.85 170.09-21.65L170.09-21.65 170.09-1.5Q171.99-0.7 174.19-0.7ZM201.58 11.5L189.43 11.5 189.43 11 190.03 10.8Q191.88 10.3 191.88 8.4L191.88 8.4 191.88-18.8Q191.88-19.9 191.51-20.45 191.13-21 190.13-21.2L190.13-21.2 189.43-21.35 189.43-21.85 197.93-24.75 198.43-24.25 198.88-22.7Q200.53-23.7 202.56-24.25 204.58-24.8 206.73-24.8L206.73-24.8Q211.03-24.8 213.56-21.53 216.08-18.25 216.08-12.15L216.08-12.15Q216.08-6.15 213.31-2.7 210.53 0.75 205.48 0.75L205.48 0.75Q201.53 0.75 198.83-0.4L198.83-0.4 198.83 8.25Q198.83 10.25 200.63 10.75L200.63 10.75 201.58 11 201.58 11.5ZM203.08-0.7L203.08-0.7Q205.58-0.7 207.06-3.3 208.53-5.9 208.53-11.95L208.53-11.95Q208.53-18 207.13-20.43 205.73-22.85 203.08-22.85L203.08-22.85Q201.23-22.85 198.98-21.65L198.98-21.65 198.98-1.5Q200.88-0.7 203.08-0.7Z" opacity="1" transform="matrix(1,0,0,1,0,0)" fill="#ffffff" class="undefined-text-1" data-fill-palette-color="secondary" id="text-1"></path></svg></g></svg></g></svg></g></svg></g><g transform="matrix(1,0,0,1,416.7813539703984,0)"><svg viewBox="0 0 236.8572251734845 220.38819101489844" height="220.38819101489844" width="236.8572251734845"><g><svg xmlns="http://www.w3.org/2000/svg" xmlns:xlink="http://www.w3.org/1999/xlink" version="1.1" x="0" y="0" viewBox="2.372 3.431 40.212 37.416000000000004" enable-background="new 0 0 45 45" xml:space="preserve" height="220.38819101489844" width="236.8572251734845" class="icon-icon-0" data-fill-palette-color="accent" id="icon-0"><polygon points="11.088,37.5 11.839,37.885 11.839,16.989 11.088,16.547 " fill="#ffffff" data-fill-palette-color="accent"></polygon><polygon points="21.827,13.004 21.871,33.907 22.396,33.666 22.838,33.734 22.838,12.874 22.479,12.75 " fill="#ffffff" data-fill-palette-color="accent"></polygon><polygon points="34.221,16.123 33.254,16.65 33.254,37.914 34.221,37.343 " fill="#ffffff" data-fill-palette-color="accent"></polygon><g fill="#ffffff" data-fill-palette-color="accent"><polyline fill="none" points="25.129,13.072 22.479,11.988 11.825,16.345 4.42,12.326 4.42,34.499 11.947,38.584 22.396,34.325    22.561,34.325 25.103,35.35 33.008,38.584 40.537,34.499 40.537,12.326 33.13,16.345 30.469,15.257  "></polyline><polygon points="33.008,14.083 31.224,13.353 30.469,15.257 33.13,16.345 40.537,12.326 40.537,34.499 33.008,38.584 25.103,35.35    22.561,34.325 22.396,34.325 11.947,38.584 4.42,34.499 4.42,12.326 11.825,16.345 22.479,11.988 25.129,13.072 24.068,10.425    22.479,9.775 11.947,14.083 2.372,8.884 2.372,35.717 11.825,40.847 22.479,36.489 33.13,40.847 42.584,35.717 42.584,8.884  " fill="#ffffff" data-fill-palette-color="accent"></polygon></g><path d="M28.243 3.431c-2.294 0-4.157 1.861-4.157 4.157 0 0.427 0.084 0.83 0.203 1.218l-0.017 0 3.971 9.914 4.069-10.257-0.008 0C32.365 8.181 32.4 7.889 32.4 7.588 32.4 5.292 30.539 3.431 28.243 3.431zM28.243 9.565c-0.982 0-1.78-0.798-1.78-1.78 0-0.982 0.798-1.781 1.78-1.781s1.781 0.798 1.781 1.781C30.024 8.767 29.226 9.565 28.243 9.565z" fill="#ffffff" data-fill-palette-color="accent"></path></svg></g></svg></g></svg></g><defs></defs></svg><rect width="395.52" height="133.3580056189197" fill="none" stroke="none" visibility="hidden"></rect></g></svg></g></svg>